:FULLY-SPECIFIED
:FORCE-ALL-JOINTS-BE-3DOF
:DEGREES
781
root 1.63852 16.3536 18.6287 -13.9368 76.942 -20.0118
lfemur -36.6099 13.2916 -14.2314
ltibia 50.3432 -0 0
lfoot -21.8581 20.3413 -0.0418369
ltoes 16.1975 -0 0
rfemur -15.844 -22.6606 21.4658
rtibia 52.0051 -0 0
rfoot -17.8749 -32.2743 0.0397679
rtoes -25.1295 0 0
lowerback 1.2187 4.64203 -0.91995
upperback -0.867456 6.17091 -3.79413
thorax -1.24393 3.09645 -3.50527
lowerneck -5.3409 -6.62834 -0.660713
upperneck -2.4272 -8.72337 5.12024
head 0.407391 -4.28978 1.50881
lclavicle 6.02728e-15 1.41437e-16 1.84807e-32
lhumerus -55.6676 -11.7223 94.7471
lradius 70.5469 -0 0
lwrist 12.9871 0 0
lhand -21.1025 -5.0242 0.0145795
lfingers 7.12502 -0 0
lthumb 5.27471 24.876 0.00934267
rclavicle 6.02728e-15 1.41437e-16 1.84807e-32
rhumerus -30.5802 47.7849 -112.046
rradius 79.9424 -0 0
rwrist 5.89367 0 0
rhand -23.8034 -20.1624 -0.00897489
rfingers 7.12502 -0 0
rthumb 2.66712 -50.1216 -0.00788175
782
root 1.65402 16.3553 18.7002 -13.6459 76.536 -19.6098
lfemur -36.4481 13.2275 -14.2463
ltibia 50.239 -0 0
lfoot -21.7522 20.0234 -0.086495
ltoes 16.239 -0 0
rfemur -16.132 -22.4896 21.4233
rtibia 51.9682 -0 0
rfoot -17.7326 -32.0467 0.0810428
rtoes -25.0602 0 0
lowerback 1.29619 4.59904 -0.937161
upperback -0.831372 6.11388 -3.773
thorax -1.25164 3.06709 -3.47129
lowerneck -5.35085 -6.6054 -0.63931
upperneck -2.35807 -8.69821 5.10518
head 0.429855 -4.27571 1.50076
lclavicle 6.06284e-15 2.91061e-16 3.5447e-32
lhumerus -55.5462 -11.8083 94.6699
lradius 70.4531 -0 0
lwrist 13.0557 0 0
lhand -20.9116 -4.96323 0.0296432
lfingers 7.12502 -0 0
lthumb 5.45818 24.9178 0.0190473
rclavicle 6.06284e-15 2.91061e-16 3.5447e-32
rhumerus -30.4984 47.4218 -111.561
rradius 79.7558 -0 0
rwrist 5.86349 0 0
rhand -23.6906 -20.2277 -0.0186066
rfingers 7.12502 -0 0
rthumb 2.77587 -50.1811 -0.0163379
783
root 1.67052 16.357 18.776 -13.3637 76.1064 -19.2101
lfemur -36.2773 13.1604 -14.2626
ltibia 50.1285 -0 0
lfoot -21.6391 19.6845 -0.133766
ltoes 16.2867 -0 0
rfemur -16.4346 -22.3055 21.3744
rtibia 51.9261 -0 0
rfoot -17.582 -31.8077 0.123692
rtoes -24.9843 0 0
lowerback 1.37784 4.55358 -0.955219
upperback -0.793357 6.05352 -3.75043
thorax -1.25984 3.03603 -3.43521
lowerneck -5.3613 -6.58123 -0.616693
upperneck -2.28423 -8.67175 5.08928
head 0.453859 -4.26089 1.49224
lclavicle 6.07109e-15 4.48605e-16 5.08576e-32
lhumerus -55.4171 -11.8982 94.5872
lradius 70.3527 -0 0
lwrist 13.1279 0 0
lhand -20.7099 -4.89919 0.0451457
lfingers 7.12502 -0 0
lthumb 5.65219 24.9617 0.0290817
rclavicle 6.07109e-15 4.48605e-16 5.08576e-32
rhumerus -30.4199 47.0384 -111.053
rradius 79.5569 -0 0
rwrist 5.83331 0 0
rhand -23.5689 -20.2973 -0.0288456
rfingers 7.12502 -0 0
rthumb 2.89328 -50.2444 -0.0253268
784
root 1.68797 16.3588 18.8559 -13.0916 75.6538 -18.8141
lfemur -36.0978 13.0905 -14.2803
ltibia 50.0118 -0 0
lfoot -21.5189 19.3251 -0.183439
ltoes 16.3404 -0 0
rfemur -16.7515 -22.1089 21.3192
rtibia 51.8789 -0 0
rfoot -17.4234 -31.5576 0.167579
rtoes -24.9021 0 0
lowerback 1.46357 4.5057 -0.974121
upperback -0.753463 5.98991 -3.72646
thorax -1.26852 3.00331 -3.39709
lowerneck -5.37224 -6.55588 -0.592893
upperneck -2.20581 -8.64404 5.07257
head 0.479362 -4.24534 1.48327
lclavicle 6.05286e-15 6.13804e-16 6.46647e-32
lhumerus -55.2806 -11.9919 94.4991
lradius 70.2456 -0 0
lwrist 13.2035 0 0
lhand -20.4974 -4.83214 0.0610405
lfingers 7.12502 -0 0
lthumb 5.8565 25.0077 0.0394133
rclavicle 6.05286e-15 6.13804e-16 6.46647e-32
rhumerus -30.3453 46.6351 -110.522
rradius 79.3458 -0 0
rwrist 5.8031 0 0
rhand -23.4385 -20.3711 -0.0396399
rfingers 7.12502 -0 0
rthumb 3.0191 -50.3115 -0.0348038
785
root 1.70635 16.3606 18.94 -12.8308 75.1788 -18.4231
lfemur -35.9098 13.0178 -14.2993
ltibia 49.8891 -0 0
lfoot -21.3917 18.9457 -0.235297
ltoes 16.4 -0 0
rfemur -17.0822 -21.9001 21.2575
rtibia 51.8268 -0 0
rfoot -17.2568 -31.2966 0.212567
rtoes -24.8138 0 0
lowerback 1.55327 4.45547 -0.993865
upperback -0.711741 5.92313 -3.70114
thorax -1.27766 2.96897 -3.35698
lowerneck -5.38364 -6.52936 -0.567942
upperneck -2.12293 -8.6151 5.05509
head 0.506321 -4.22908 1.47386
lclavicle 6.00902e-15 7.86392e-16 7.68144e-32
lhumerus -55.1367 -12.0892 94.4057
lradius 70.1322 -0 0
lwrist 13.2825 0 0
lhand -20.2744 -4.76214 0.0772807
lfingers 7.12502 -0 0
lthumb 6.07085 25.0557 0.0500091
rclavicle 6.00902e-15 7.86392e-16 7.68144e-32
rhumerus -30.2755 46.2124 -109.97
rradius 79.1229 -0 0
rwrist 5.77283 0 0
rhand -23.2996 -20.4489 -0.0509392
rfingers 7.12502 -0 0
rthumb 3.15308 -50.3822 -0.0447225
